<svg width="10" height="6" viewBox="0 0 10 6" fill="none" xmlns="http://www.w3.org/2000/svg">
<path d="M0.412671 0.190775C0.859632 -0.133637 1.48496 -0.0342914 1.80937 0.412671C2.73546 1.6886 3.80717 2.84178 5.00007 3.84764C6.19298 2.84178 7.26469 1.6886 8.19077 0.412671C8.51519 -0.0342908 9.14051 -0.133637 9.58747 0.190775C10.0344 0.515188 10.1338 1.14051 9.80937 1.58747C8.74305 3.0566 7.50021 4.37985 6.11078 5.5255C6.10193 5.5328 6.09168 5.54147 6.08009 5.55127C5.96585 5.64784 5.72163 5.85428 5.40751 5.9439C5.14502 6.0188 4.85513 6.01879 4.59263 5.9439C4.27851 5.85428 4.0343 5.64784 3.92006 5.55127C3.90846 5.54147 3.89821 5.5328 3.88936 5.5255C2.49994 4.37985 1.25709 3.0566 0.190775 1.58747C-0.133637 1.14051 -0.0342914 0.515188 0.412671 0.190775Z" fill="#C8CBCC"/>
</svg>
